<svg id="Camada_1" data-name="Camada 1" xmlns="http://www.w3.org/2000/svg" viewBox="0 0 1920 1080"><defs><style>.cls-1,.cls-2{fill:#00a947;}.cls-2{font-size:324.31px;font-family:Ocean-Bold, Ocean;font-weight:700;}</style></defs><path class="cls-1" d="M511.12,810.43a44.15,44.15,0,0,1,23.39-23.38,42.27,42.27,0,0,1,17.14-3.52h82.86V929.28H610.67V868.44H545.29V844.37h65.38V807.59h-59a20.14,20.14,0,0,0-20.21,20.17V929.28H507.61V827.57A42.5,42.5,0,0,1,511.12,810.43Z"/><path class="cls-1" d="M848.24,787.05a45,45,0,0,1,27.59,41.66V929.28H852V828.89a21.3,21.3,0,0,0-21.34-21.3H777.07a44.42,44.42,0,0,1,5.23,21.3V929.28H758.46V828.89a20.73,20.73,0,0,0-1.71-8.27,21.12,21.12,0,0,0-4.54-6.79,21.61,21.61,0,0,0-6.8-4.54,21,21,0,0,0-8.29-1.7H678.77V929.28H654.94V783.53H830.65A44.46,44.46,0,0,1,848.24,787.05Z"/><path class="cls-1" d="M968.9,783.53a52.27,52.27,0,0,1,17.6,3,43.34,43.34,0,0,1,14.41,8.4,40.69,40.69,0,0,1,9.76,13.06,38.74,38.74,0,0,1,3.64,16.91v1.81q0,10.22-4.09,17a58.5,58.5,0,0,1-11.12,13.17,62.82,62.82,0,0,1,11.12,13.39q4.08,6.81,4.09,17a39.52,39.52,0,0,1-3.64,17,41.7,41.7,0,0,1-9.76,13.28,43.83,43.83,0,0,1-14.41,8.62,50.42,50.42,0,0,1-17.6,3.07H896V783.53ZM990.47,825q0-8.81-6.36-13.09a26.53,26.53,0,0,0-15.21-4.29h-49v97.62h49a25.16,25.16,0,0,0,15.21-4.62q6.36-4.64,6.36-13.43a17.62,17.62,0,0,0-1.82-8.23,18.24,18.24,0,0,0-4.76-5.87,19.66,19.66,0,0,0-6.81-3.5,29.13,29.13,0,0,0-8.18-1.12H932.58V844.37H968.9a26,26,0,0,0,15.21-4.4q6.36-4.4,6.36-13.2Z"/><path class="cls-1" d="M1038.49,810.43a44.17,44.17,0,0,1,23.38-23.38,42.27,42.27,0,0,1,17.14-3.52h82.86V929.28H1138V868.44h-65.38V844.37H1138V807.59h-59a20.14,20.14,0,0,0-20.21,20.17V929.28H1035V827.57A42.34,42.34,0,0,1,1038.49,810.43Z"/><path class="cls-1" d="M1282.07,787.05a45,45,0,0,1,27.59,41.66V929.28h-23.84V828.89a20.89,20.89,0,0,0-1.7-8.27,21.45,21.45,0,0,0-4.54-6.79,21.7,21.7,0,0,0-6.82-4.54,20.87,20.87,0,0,0-8.28-1.7h-58.34V929.28H1182.3V783.53h82.18A44.46,44.46,0,0,1,1282.07,787.05Z"/><path class="cls-1" d="M1414.08,783.53a42.19,42.19,0,0,1,16.8,3.41A43.31,43.31,0,0,1,1454,810.09a42.22,42.22,0,0,1,3.4,16.8v59a42.22,42.22,0,0,1-3.4,16.8,43.4,43.4,0,0,1-23.16,23.15,42.19,42.19,0,0,1-16.8,3.41h-83.77V783.53Zm19.3,43.5a19.18,19.18,0,0,0-1.48-7.57,18.78,18.78,0,0,0-4.08-6.1,20.56,20.56,0,0,0-6.13-4.18,18.27,18.27,0,0,0-7.61-1.59h-59.93v97.62h59.93a18.26,18.26,0,0,0,7.61-1.58,20.56,20.56,0,0,0,6.13-4.18,18.67,18.67,0,0,0,4.08-6.1,19.18,19.18,0,0,0,1.48-7.57Z"/><path class="cls-1" d="M1580.94,783.53h23.84V885.69a42.81,42.81,0,0,1-3.41,17,43.43,43.43,0,0,1-23.15,23.15,42.81,42.81,0,0,1-17,3.41h-83.32V783.53h23.84V905.21h59.48a19.75,19.75,0,0,0,19.75-19.71Z"/><text class="cls-2" transform="translate(315.22 929.55)">K</text><path class="cls-1" d="M1243.63,610.52,755.49,754.86a61.75,61.75,0,0,1-17.56,2.54,62.82,62.82,0,0,1-59.89-44L564.7,347.08a62.72,62.72,0,0,1,40.61-78L1079.25,117l2.12-.69h0a4.4,4.4,0,0,1,5.53,2.84l24.62,76.72c-5.58,1.89-11,4.2-16.65,5.88l-20.73-64.58-.3.11-2.12.67-461,148a45.05,45.05,0,0,0-29.16,56L694.9,708.18a45.05,45.05,0,0,0,55.6,29.75l466.23-137.86Z"/><path class="cls-1" d="M740.58,704.24c-5.74,1.7-11.88-1.32-13.69-6.73l-116.7-348.8a9.72,9.72,0,0,1,.56-7.51,10.65,10.65,0,0,1,6.35-5.31l425.73-136.23c5.77-1.84,12,1.09,13.9,6.55L1078.15,268l8.89-1.31-22-63.39c-3.45-9.95-14.63-15.36-24.93-12.06L614.41,327.48a19.44,19.44,0,0,0-11.53,9.73,18.44,18.44,0,0,0-1.06,14.3l116.7,348.8a19.84,19.84,0,0,0,18.86,13.22,20.41,20.41,0,0,0,5.7-.82l291.43-85.91-3.53-8.17Z"/><path class="cls-1" d="M755.83,380.2H674.58a6.89,6.89,0,0,0-6.56,9l25.76,79.29a6.9,6.9,0,0,0,9.84,3.94l70.88-38.22a6.91,6.91,0,0,0,3.19-8.5l-15.4-41.06A6.89,6.89,0,0,0,755.83,380.2Z"/><path class="cls-1" d="M794.66,500.86H713.41a6.91,6.91,0,0,0-6.57,9l25.77,79.28a6.91,6.91,0,0,0,9.84,4l70.88-38.22a6.91,6.91,0,0,0,3.19-8.5l-15.4-41.07A6.9,6.9,0,0,0,794.66,500.86Z"/><path class="cls-1" d="M916.44,463.8H835.19a6.9,6.9,0,0,0-6.56,9l25.76,79.28a6.9,6.9,0,0,0,9.84,3.94l70.88-38.22a6.91,6.91,0,0,0,3.19-8.5l-15.4-41.06A6.89,6.89,0,0,0,916.44,463.8Z"/><path class="cls-1" d="M877.61,347.31H796.36a6.9,6.9,0,0,0-6.56,9l25.76,79.28a6.9,6.9,0,0,0,9.84,3.94l70.88-38.22a6.89,6.89,0,0,0,3.19-8.49l-15.4-41.07A6.9,6.9,0,0,0,877.61,347.31Z"/><path class="cls-1" d="M1111.81,471.55c-6,2.72-11.87,6.06-18.14,8.06-18.28,5.84-36.47,3.57-54.35-2.11a113.79,113.79,0,0,1-18.14-7.55,45,45,0,0,1-10.24-8.06c-6.78-6.69-14.71-9.49-24.09-8.17a6.25,6.25,0,0,0-5.68,5.25,23.7,23.7,0,0,1-2.74,6.6c-2.36,3.91-5.31,4.73-9.73,3.68a8.37,8.37,0,0,0-4.43.58c-1.52.53-2.83,1.65-4.33,2.28-5.28,2.23-10,.72-12.38-4.47-6-13.34-2.91-25.38,9.32-32.33,9.13-5.19,19.33-6.42,29.54-7.42,8.92-.87,17.86-1.48,26.77-2.5a38.16,38.16,0,0,0,9.85-2.52,11.7,11.7,0,0,0,5.1-4.21c2.24-3.45.49-7.31-3.58-7.44a40.65,40.65,0,0,0-12.61,1.56c-16.15,4.74-32.05,5.28-47.8-1.48q-7.24-3.12-14.56-6.06c-5.8-2.34-8.65-6.78-9.06-12.82a25.5,25.5,0,0,1,.33-7.91c4.93-19.34,10-38.7,21.52-55.46,9-13.08,20.43-22.68,37.64-23.89a47.81,47.81,0,0,1-1.56-5.49c-1.25-7.56-2.65-15.11-3.41-22.72a16,16,0,0,1,1.76-8.41c3.78-7.33,4.71-15.17,4.63-23.15-.05-6.16,6.93-3.06,11.74,5.86,3.75,6.93,8.67,13.24,13.12,19.79,1,1.45,2.42,2.64,3.28,4.15,8.16,14.48,21.23,23.74,34.58,32.71,18.17,12.21,36.92,23.35,57.4,31.33,11.15,4.35,22.54,6.89,34.71,6.38,10.18-.42,20.42.44,30.63.71.72,0,1.45-.06,1.76-.07-23.44-27.31-25.85-59.07-18.54-92.3,6.64-30.2,24-53.71,49.52-70.91,17.5-11.79,37.49-14.53,58.06-13.1,50.81,3.51,88.67,36.21,100.61,87,2.39,10.16,3.28,20.67,4.82,31a18.72,18.72,0,0,1,0,3c-7.74-1.8-15.24-4-22.91-5.19-8.7-1.32-17.54-1.89-26.35-2.35a27.72,27.72,0,0,0-18.07,5.74c-8.33,6.13-9.73,14.43-3.53,22.69,5.37,7.16,11.59,13.71,16.6,21.1,21.64,31.95,38.31,66.19,45.73,104.37,4.2,21.62,4.39,43.2-3.29,64.25-8.23,22.58-24.06,38.45-44.71,49.94-15.38,8.54-31.9,14-49,17.58q-100,20.82-200,41.35l-4.1.85c-1.18-8.47-1.82-16.45,2.77-23.75,3-4.79,7.94-5.62,13.07-4.68,14.16,2.6,27-.86,39.15-8,.76-.45,1.5-.94,2.22-1.45a4.79,4.79,0,0,0,.72-.77c-5-5.24-10.23-10.17-14.82-15.64-13.63-16.27-21.23-34.56-17.49-56.27A66.73,66.73,0,0,1,1110,474.35a17.82,17.82,0,0,1,2.65-2.55Zm97.7-120.21,5,2.51c32.69,16.45,53.18,41.15,65.28,75.69,9.63,27.49,13.14,55-3.31,83,6.07,10-1.7,20.41-8.53,31a7.23,7.23,0,0,0,.85-1.13c19.83-41.93,25.93-85.28,12.27-130.23-6.79-22.34-19.72-40.51-40.72-52A71,71,0,0,0,1209.51,351.34Zm-229.73,1.3c1.27,5.92,2,6.43,7.76,4.78a24.3,24.3,0,0,0,4.9-1.91,8.91,8.91,0,1,0-9.16-15.28C979.37,342.66,978.39,346.14,979.78,352.64Z"/><line class="cls-1" x1="736.51" y1="481.04" x2="894.66" y2="436.87"/><line class="cls-1" x1="754.82" y1="477.97" x2="912.98" y2="433.79"/></svg>